
<svg xmlns="http://www.w3.org/2000/svg" version="1.1" xmlns:xlink="http://www.w3.org/1999/xlink" preserveAspectRatio="none" x="0px" y="0px" width="400px" height="140px" viewBox="0 0 400 140">
<defs>
<g id="Layer0_0_FILL">
<path fill="#FFFFFF" stroke="none" d="
M 317.25 275.15
Q 319 273.25 319 270.55 319 267.85 317.25 265.95 315.5 264.05 313 264.05 310.5 264.05 308.75 265.95 307 267.85 307 270.55 307 273.25 308.75 275.15 310.5 277.05 313 277.05 315.5 277.05 317.25 275.15 Z"/>
</g>

<g id="Layer0_1_FILL">
<path fill="#D332CB" stroke="none" d="
M 275.75 219.95
L 262.6 210.75 262.55 210.8 263 228.95 275.75 219.95 Z"/>
</g>

<g id="Layer0_2_FILL">
<path fill="#491E79" stroke="none" d="
M 517.9 156.5
L 497.5 156.5 497.5 176.9 517.9 176.9 517.9 156.5 Z"/>
</g>

<path id="Layer1_0_1_STROKES" stroke="#FFFFFF" stroke-width="5" stroke-linejoin="round" stroke-linecap="round" fill="none" d="
M 267 26.1
L 286 26.1
M 163.6 73.5
L 190.35 30.75
M 116.35 59
Q 118.5 65.3 118.95 72.25"/>

<path id="Layer1_0_2_STROKES" stroke="#0099FF" stroke-width="5" stroke-linejoin="round" stroke-linecap="round" fill="none" d="
M 324 26.1
L 365 26.1 365 33.1"/>

<path id="Layer1_0_3_STROKES" stroke="#0033CC" stroke-width="5" stroke-linejoin="round" stroke-linecap="round" fill="none" d="
M 267 105.1
L 267 104.1"/>

<path id="Layer1_0_4_STROKES" stroke="#FF6600" stroke-width="5" stroke-linejoin="round" stroke-linecap="round" fill="none" d="
M 116.65 92.15
Q 116.6 92.3 116.6 92.4 116.55 92.55 116.5 92.65 116.3 93.2 116.15 93.75 115.95 94.2 115.8 94.65 114.9 97 113.75 99.25 113.2 100.35 112.6 101.4 111.65 103.05 110.6 104.65 110.25 105.2 109.85 105.75 109.45 106.35 109 106.9 108.55 107.5 108.1 108.05 107.95 108.25 107.8 108.4 107.35 109 106.9 109.5 103.85 112.75 103.8 112.8 102.85 113.75 101.9 114.65 101.7 114.85 101.5 115 90 125.35 75 127.5 71.15 128.05 67.05 128.05 62.95 128.05 59.1 127.5 42.6 125.15 30.25 112.8 15.05 97.6 15.05 76.05 15.05 54.5 30.25 39.25 45.5 24.05 67.05 24.05 88.6 24.05 103.8 39.25 112.6 48.05 116.35 59
M 107.8 108.4
Q 107.65 108.55 107.55 108.7 107.2 109.1 106.9 109.5"/>

<path id="Layer1_0_5_STROKES" stroke="#FFFF00" stroke-width="5" stroke-linejoin="round" stroke-linecap="round" fill="none" d="
M 118.95 72.25
Q 119.05 73.95 119.05 75.65 119.05 75.85 119.05 76.05 119.05 76.25 119.05 76.4"/>

<path id="Layer1_0_6_STROKES" stroke="#FFE90D" stroke-width="5" stroke-linejoin="round" stroke-linecap="round" fill="none" d="
M 119.05 76.4
Q 119.05 77.35 119 78.25 118.95 79.95 118.8 81.65"/>

<path id="Layer1_0_7_STROKES" stroke="#FFD11D" stroke-width="5" stroke-linejoin="round" stroke-linecap="round" fill="none" d="
M 118.8 81.65
Q 118.6 83.45 118.3 85.25 118.25 85.4 118.25 85.5 118.15 86 118.1 86.5 118 86.85 117.95 87.15"/>

<path id="Layer1_0_8_STROKES" stroke="#FFAB31" stroke-width="5" stroke-linejoin="round" stroke-linecap="round" fill="none" d="
M 117.95 87.15
Q 117.75 88.1 117.55 89 117.45 89.25 117.4 89.5 117.35 89.7 117.3 89.9"/>

<path id="Layer1_0_9_STROKES" stroke="#FF9438" stroke-width="5" stroke-linejoin="round" stroke-linecap="round" fill="none" d="
M 117.3 89.9
Q 117.15 90.4 117.05 90.9 116.85 91.55 116.65 92.15"/>

<path id="Layer1_0_10_STROKES" stroke="#FFF3F9" stroke-width="5" stroke-linejoin="round" stroke-linecap="round" fill="none" d="
M 156.4 85
L 163.6 73.5"/>

<path id="Layer1_0_11_STROKES" stroke="#FFCBE9" stroke-width="5" stroke-linejoin="round" stroke-linecap="round" fill="none" d="
M 150.8 94
L 156.4 85"/>

<path id="Layer1_0_12_STROKES" stroke="#FF8DF0" stroke-width="5" stroke-linejoin="round" stroke-linecap="round" fill="none" d="
M 142.65 107
L 150.8 94"/>

<path id="Layer1_0_13_STROKES" stroke="#FF6FF0" stroke-width="5" stroke-linejoin="round" stroke-linecap="round" fill="none" d="
M 137.95 114.5
L 142.65 107"/>

<path id="Layer1_0_14_STROKES" stroke="#FF3DE5" stroke-width="5" stroke-linejoin="round" stroke-linecap="round" fill="none" d="
M 139.95 122
L 133.3 121.95 137.95 114.5"/>

<path id="Layer1_0_15_STROKES" stroke="#FF49E0" stroke-width="5" stroke-linejoin="round" stroke-linecap="round" fill="none" d="
M 145.45 122
L 139.95 122"/>

<path id="Layer1_0_16_STROKES" stroke="#FF2FEA" stroke-width="5" stroke-linejoin="round" stroke-linecap="round" fill="none" d="
M 145.45 122.15
L 145.45 122"/>

<path id="Layer1_0_17_STROKES" stroke="#ED3BDD" stroke-width="5" stroke-linejoin="round" stroke-linecap="round" fill="none" d="
M 157.45 122.05
L 145.45 122.15"/>

<path id="Layer1_0_18_STROKES" stroke="#D33BDD" stroke-width="5" stroke-linejoin="round" stroke-linecap="round" fill="none" d="
M 167.95 122.1
L 157.45 122.05"/>

<path id="Layer1_0_19_STROKES" stroke="#00CCFF" stroke-width="5" stroke-linejoin="round" stroke-linecap="round" fill="none" d="
M 286 26.1
L 324 26.1"/>

<path id="Layer1_0_20_STROKES" stroke="#008BEE" stroke-width="5" stroke-linejoin="round" stroke-linecap="round" fill="none" d="
M 365 33.1
L 365 72.1"/>

<path id="Layer1_0_21_STROKES" stroke="#0075CC" stroke-width="5" stroke-linejoin="round" stroke-linecap="round" fill="none" d="
M 365 72.1
L 365 107.1"/>

<path id="Layer1_0_22_STROKES" stroke="#0052B5" stroke-width="5" stroke-linejoin="round" stroke-linecap="round" fill="none" d="
M 365 107.1
L 365 124.1 335 124.1"/>

<path id="Layer1_0_23_STROKES" stroke="#3928A5" stroke-width="5" stroke-linejoin="round" stroke-linecap="round" fill="none" d="
M 335 124.1
L 299 124.1"/>

<path id="Layer1_0_24_STROKES" stroke="#4A239A" stroke-width="5" stroke-linejoin="round" stroke-linecap="round" fill="none" d="
M 299 124.1
L 267 124.1 267 105.1"/>

<path id="Layer1_0_25_STROKES" stroke="#3A2983" stroke-width="5" stroke-linejoin="round" stroke-linecap="round" fill="none" d="
M 267 104.1
L 267 71.1"/>

<path id="Layer1_0_26_STROKES" stroke="#491E79" stroke-width="5" stroke-linejoin="round" stroke-linecap="round" fill="none" d="
M 267 71.1
L 267 56.5"/>

<path id="Layer1_0_27_STROKES" stroke="#FFFFFF" stroke-opacity="0.8" stroke-width="5" stroke-linejoin="round" stroke-linecap="round" fill="none" d="
M 267 56.5
L 267 26.1
M 190.35 30.75
L 247.5 122.35"/>

<path id="Layer1_0_28_STROKES" stroke="#FFFFFF" stroke-opacity="0.4980392156862745" stroke-width="5" stroke-linejoin="round" stroke-linecap="round" fill="none" d="
M 247.5 122.35
L 167.95 122.1"/>

<path id="Layer0_3_1_STROKES" stroke="#FFFFFF" stroke-width="1.5" stroke-linejoin="round" stroke-linecap="round" fill="none" d="
M 470.9 127.55
L 475.9 130.75
M 468.05 107.95
L 466.1 114.25
M 475.8 112.85
L 470.35 117.4
M 478 122.15
L 471.3 122.25
M 459.15 107.75
L 460.35 114.35"/>
</defs>

<g transform="matrix( 1, 0, 0, 1, 0,0) ">
<use xlink:href="#Layer1_0_1_STROKES"/>

<use xlink:href="#Layer1_0_2_STROKES"/>

<use xlink:href="#Layer1_0_3_STROKES"/>

<use xlink:href="#Layer1_0_4_STROKES"/>

<use xlink:href="#Layer1_0_5_STROKES"/>

<use xlink:href="#Layer1_0_6_STROKES"/>

<use xlink:href="#Layer1_0_7_STROKES"/>

<use xlink:href="#Layer1_0_8_STROKES"/>

<use xlink:href="#Layer1_0_9_STROKES"/>

<use xlink:href="#Layer1_0_10_STROKES"/>

<use xlink:href="#Layer1_0_11_STROKES"/>

<use xlink:href="#Layer1_0_12_STROKES"/>

<use xlink:href="#Layer1_0_13_STROKES"/>

<use xlink:href="#Layer1_0_14_STROKES"/>

<use xlink:href="#Layer1_0_15_STROKES"/>

<use xlink:href="#Layer1_0_16_STROKES"/>

<use xlink:href="#Layer1_0_17_STROKES"/>

<use xlink:href="#Layer1_0_18_STROKES"/>

<use xlink:href="#Layer1_0_19_STROKES"/>

<use xlink:href="#Layer1_0_20_STROKES"/>

<use xlink:href="#Layer1_0_21_STROKES"/>

<use xlink:href="#Layer1_0_22_STROKES"/>

<use xlink:href="#Layer1_0_23_STROKES"/>

<use xlink:href="#Layer1_0_24_STROKES"/>

<use xlink:href="#Layer1_0_25_STROKES"/>

<use xlink:href="#Layer1_0_26_STROKES"/>

<use xlink:href="#Layer1_0_27_STROKES"/>

<use xlink:href="#Layer1_0_28_STROKES"/>
</g>

<g transform="matrix( 1, 0, 0, 1, -197,-211.45) ">
<use xlink:href="#Layer0_0_FILL"/>
</g>

<g transform="matrix( 0.7727203369140625, 0, 0, 0.7727203369140625, -34.8,-47.95) ">
<use xlink:href="#Layer0_1_FILL"/>
</g>

<g transform="matrix( 1, 0, 0, 1, -241,-112.45) ">
<use xlink:href="#Layer0_2_FILL"/>
</g>

<g transform="matrix( 1, 0, 0, 1, -95,-98.95) ">
<use xlink:href="#Layer0_3_1_STROKES"/>
</g>
</svg>
